<svg width="462" height="494" viewBox="0 0 462 494" fill="none" xmlns="http://www.w3.org/2000/svg">
<path d="M30.7875 269.475L108.026 401.55L178.199 391.335C182.212 390.751 185.469 394.374 186.052 398.38C186.636 402.393 183.876 406.886 180.533 407.373L115.706 416.81L129.997 439.979L228.909 425.58C232.922 424.995 236.179 428.619 236.762 432.625C237.346 436.638 234.587 441.131 231.244 441.617L138.342 455.148L143.717 463.923C149.286 474.03 160.951 479.159 172.313 477.505L365.454 449.388C377.486 447.637 387.108 438.731 389.459 426.786L429.101 211.488L30.7875 269.475Z" fill="white"/>
<path d="M64.9585 194.883C45.8808 204.488 34.5711 225.241 37.0134 246.723C37.4025 249.396 37.7916 252.069 38.7531 253.974L415.018 199.206C414.726 197.203 415.007 194.433 414.714 192.423C411.406 169.7 392.548 152.654 370.184 149.083C360.437 147.773 351.845 149.707 343.455 152.974L342.775 148.298C338.689 120.229 312.657 100.814 284.588 104.9C277.903 105.873 270.749 108.283 265.121 111.832C263.089 102.571 259.81 89.3997 251.654 75.5713C239.852 55.4523 212.207 39.0026 197.286 30.2562C193.554 28.07 190.035 31.9959 191.184 35.2422C196.096 50.2274 201.229 76.0912 192.019 97.223C184.331 114.719 178.339 125.149 171.195 132.332C167.463 130.146 160.863 127.009 152.456 125.503C147.585 124.844 142.806 124.862 137.46 125.641C109.391 129.727 89.9758 155.758 94.0619 183.827L94.7426 188.503C84.5258 188.622 74.4966 190.082 64.9619 194.884L64.9585 194.883ZM258.8 176.222C267.167 163.401 263.889 150.232 262.83 147.655C261.576 143.74 263.763 140.014 267.678 138.76C271.593 137.506 275.319 139.694 276.573 143.609C277.827 147.524 282.651 166.612 270.282 184.792C259.63 200.674 242.447 204.544 237.765 205.225C233.752 205.809 230.592 202.856 230.009 198.85C229.425 194.837 232.379 191.677 235.721 191.191C238.972 190.027 250.907 187.605 258.8 176.222ZM198.553 146.771C206.453 135.387 218.478 133.637 222.491 133.053C226.503 132.468 229.663 135.422 230.246 139.428C230.83 143.441 227.876 146.6 223.87 147.184C222.531 147.379 215.182 148.448 210.614 154.573C205.572 162.134 208.273 171.291 208.273 171.291C209.527 175.206 207.34 178.931 204.094 180.088L202.755 180.283C199.412 180.77 196.35 178.486 195.193 175.24C192.989 174.2 188.943 160.457 198.553 146.771Z" fill="white"/>
</svg>
