<svg width="341" height="207" viewBox="0 0 341 207" fill="none" xmlns="http://www.w3.org/2000/svg">
<mask id="path-1-inside-1_230_2" fill="white">
<ellipse cx="170.436" cy="169.114" rx="171.5" ry="168" transform="rotate(33.9321 170.436 169.114)"/>
</mask>
<path d="M320.508 270.081C315.322 266.592 310.137 263.103 304.951 259.614C293.84 272.404 281.089 283.175 267.261 291.697C211.686 326.172 140.92 322.284 90.6119 287.761C90.6119 287.761 90.6119 287.761 90.6119 287.761C25.5456 246.246 3.55926 150.613 47.4446 86.3673C88.2306 20.2294 186.714 -0.0466974 254.137 44.7054C308.833 78.1238 339.756 148.628 323.949 213.573C320.18 229.702 313.764 245.281 304.951 259.614C310.137 263.103 315.322 266.592 320.508 270.081C331.583 254.879 340.236 237.79 345.907 219.626C369.661 146.667 339.393 59.4337 274.294 14.7441C194.853 -44.8215 65.9702 -26.4677 8.84057 60.395C-52.1028 144.499 -24.1996 274.029 62.7014 329.246C62.7014 329.246 62.7014 329.246 62.7014 329.246C129.884 376.258 228.285 369.615 285.544 315.482C299.923 302.339 311.755 286.842 320.508 270.081ZM304.951 259.614L320.508 270.081L304.951 259.614Z" fill="#E16C94" mask="url(#path-1-inside-1_230_2)"/>
</svg>
