<svg width="134" height="71" viewBox="0 0 134 71" fill="none" xmlns="http://www.w3.org/2000/svg">
<mask id="path-1-inside-1_28_83" fill="white">
<circle cx="67" cy="4" r="67"/>
</mask>
<path d="M138.5 4C135.5 4 132.5 4 129.5 4C128.501 10.5662 126.584 16.7843 123.889 22.4877C113.095 45.4578 90.0562 59.1999 67 59C37.7702 59.6965 11.0612 33.7197 11.1667 4C9.85974 -25.6293 35.9008 -53.8672 67 -54.3333C91.5723 -55.6092 116.563 -39.4207 125.538 -15.023C127.825 -8.99386 129.169 -2.56524 129.5 4C132.5 4 135.5 4 138.5 4C138.836 -3.48815 137.989 -11.0801 135.937 -18.3998C128.089 -47.9568 99.0097 -71.2269 67 -71.6667C26.7226 -73.8683 -11.5953 -37.7473 -11.1667 4C-12.7968 45.6569 24.8531 84.0391 67 83C67 83 67 83 67 83C100.526 83.6362 131.557 57.9197 137.585 26.9351C139.231 19.2897 139.504 11.4872 138.5 4ZM129.5 4H138.5H129.5Z" fill="#EA3429" mask="url(#path-1-inside-1_28_83)"/>
</svg>
