<svg width="164" height="164" viewBox="0 0 164 164" fill="none" xmlns="http://www.w3.org/2000/svg">
<mask id="path-1-inside-1_28_84" fill="white">
<circle cx="81.5186" cy="81.5186" r="81.5" transform="rotate(-103.41 81.5186 81.5186)"/>
</mask>
<path d="M60.443 -6.87872C61.8925 -0.79912 63.342 5.28048 64.7915 11.3601C72.6557 11.6265 80.0514 12.9936 86.8467 15.2103C114.171 24.3177 131.079 45.5358 136.478 68.4152C144.105 97.393 125.034 130.465 95.0246 138.167C65.532 147.224 29.3311 128.761 19.8039 96.2325C11.3865 70.8256 20.9165 39.124 44.9645 21.665C50.8857 17.2892 57.5728 13.793 64.7915 11.3601C63.342 5.28048 61.8925 -0.79912 60.443 -6.87872C51.0315 -5.35301 41.7467 -2.30167 33.0971 2.22297C-1.9511 19.8905 -23.8568 63.2994 -15.3226 104.607C-6.76732 157.025 51.3409 196.558 105.815 183.426C160.752 173.046 199.677 111.808 185.115 56.8193C185.115 56.8193 185.115 56.8193 185.115 56.8193C175.541 12.5122 130.506 -19.117 89.2421 -14.6939C79.0183 -13.846 69.2061 -11.1157 60.443 -6.87872ZM64.7915 11.3601L60.443 -6.87872L64.7915 11.3601Z" fill="#41B6D3" mask="url(#path-1-inside-1_28_84)"/>
</svg>
