<svg width="343" height="343" viewBox="0 0 343 343" fill="none" xmlns="http://www.w3.org/2000/svg">
<mask id="path-1-inside-1_28_79" fill="white">
<circle cx="171.5" cy="171.5" r="171.5"/>
</mask>
<path d="M352.375 171.5C346.125 171.5 339.875 171.5 333.625 171.5C331.545 188.527 327.029 204.821 320.382 219.882C293.887 280.588 233.011 318.616 171.5 318C93.6039 319.864 22.6309 250.417 23.2639 171.5C20.1278 92.7714 89.7092 18.6133 171.5 18.0556C236.169 15.1984 301.112 58.3228 323.817 122.002C329.615 137.743 332.936 154.475 333.625 171.5C339.875 171.5 346.125 171.5 352.375 171.5C353.077 152.552 350.791 133.396 345.481 114.968C325.125 40.5393 251.664 -17.3385 171.5 -18.0556C70.5879 -23.0557 -24.5702 67.5257 -23.2639 171.5C-27.0733 275.286 66.6932 370.578 171.5 368C171.5 368 171.5 368 171.5 368C254.822 369.525 332.349 306.55 348.916 229.148C353.376 210.04 354.468 190.446 352.375 171.5ZM333.625 171.5H352.375H333.625Z" fill="#A46BEA" mask="url(#path-1-inside-1_28_79)"/>
</svg>
