<svg width="126" height="196" viewBox="0 0 126 196" fill="none" xmlns="http://www.w3.org/2000/svg">
<mask id="path-1-inside-1_28_80" fill="white">
<circle cx="27.3338" cy="98.0011" r="98" transform="rotate(41.4961 27.3338 98.0011)"/>
</mask>
<path d="M107.758 169.144C103.077 165.003 98.3953 160.862 93.714 156.721C85.9802 162.321 77.7971 166.569 69.4733 169.539C35.9267 181.4 1.68813 172.988 -21.0337 152.678C-50.6586 127.69 -54.7526 78.4795 -28.6436 48.4832C-4.0564 17.3922 47.3647 11.0013 80.3025 38.1226C107.083 58.6107 119.279 98.0787 106.79 132.538C103.772 141.108 99.3687 149.285 93.714 156.721C98.3953 160.862 103.077 165.003 107.758 169.144C115.728 161.19 122.513 151.883 127.677 141.623C149.047 100.669 140.247 44.5067 104.229 11.0754C60.6515 -32.878 -20.8081 -31.1324 -63.4929 17.6554C-108.459 64.1741 -104.416 147.844 -54.1622 190.128C-54.1622 190.128 -54.1622 190.128 -54.1622 190.128C-15.7057 225.57 47.5331 226.33 84.7058 195.384C94.0729 187.935 101.878 178.946 107.758 169.144ZM93.714 156.721L107.758 169.144L93.714 156.721Z" fill="#70C000" mask="url(#path-1-inside-1_28_80)"/>
</svg>
